<?xml version="1.0" encoding="utf-8"?>
<!-- Generator: Adobe Illustrator 17.0.0, SVG Export Plug-In . SVG Version: 6.00 Build 0)  -->
<!DOCTYPE svg PUBLIC "-//W3C//DTD SVG 1.1//EN" "http://www.w3.org/Graphics/SVG/1.1/DTD/svg11.dtd">
<svg version="1.1" id="Layer_1" xmlns="http://www.w3.org/2000/svg" xmlns:xlink="http://www.w3.org/1999/xlink" x="0px" y="0px"
	 width="435px" height="85px" viewBox="0 0 435 85" enable-background="new 0 0 435 85" xml:space="preserve">
<g>
	<path fill="#244AA5" d="M52.795,60.694c-0.218,3.883-0.435,7.766-0.653,11.65c0.197,0.061,0.393,0.121,0.59,0.182
		c2.193-4.103,4.385-8.206,6.587-12.327c6.867,0,13.465,0,20.392,0c0,7.508,0,14.725,0,22.276c-20.463,0-40.712,0-61.419,0
		c0-21.311,0-42.574,0-64.176c7.264,0,14.391,0,21.922,0c0,8.257,0,16.449,0,25.018c-3.77,2.219-7.727,4.549-11.684,6.878
		c0.03,0.239,0.059,0.478,0.089,0.717c3.685-0.219,7.369-0.438,12.045-0.716c-6.09,9.52-11.667,18.238-17.245,26.957
		c0.195,0.249,0.391,0.498,0.586,0.746c9.284-5.886,18.569-11.771,27.853-17.657C52.171,60.392,52.483,60.543,52.795,60.694z"/>
	<path fill="#ED1C24" d="M62.091,53.378c1.768-3.524,3.536-7.047,5.494-10.95c-3.253-3.069-6.421-6.056-9.802-9.246
		c-3.661,2.027-7.159,3.964-10.656,5.9c-0.208-0.197-0.417-0.394-0.625-0.59c4.052-6.972,8.103-13.944,12.34-21.235
		c4.685,2.053,7.367-1.073,10.521-3.488c6.636-5.081,14.041-8.713,22.24-10.577c1.223-0.278,2.489-0.367,4.606-0.666
		c-1.041,12.9-6.376,23.343-13.964,32.892c0.3,1.627,0.588,3.19,0.961,5.215c-6.801,4.457-13.646,8.943-20.491,13.429
		C62.508,53.834,62.3,53.606,62.091,53.378z"/>
</g>
<g id="layer1" transform="translate(-324.86798,-206.38798)">
	<g id="g2782" transform="matrix(3.0304796,0,0,3.0304796,-1303.1606,-530.96666)">
		<g id="g2649" transform="matrix(1.25,0,0,-1.25,540.89792,245.29443)">
			<path id="path2651" fill="#FFFFFF" d="M26.386-5.799h1.64l1.299-3.423l1.377,3.423h1.656l0.968-6.406h-1.665l-0.467,3.687h-0.017
				l-1.538-3.687h-0.662l-1.47,3.687H27.49l-0.535-3.687h-1.657L26.386-5.799z"/>
		</g>
		<g id="g2653" transform="matrix(1.25,0,0,-1.25,558.10754,247.90106)">
			<path id="path2655" fill="#FFFFFF" d="M21.929-5.124v-1.071h1.877v-1.41h-1.877v-1.104h1.979v-1.41h-3.644v6.405h3.644v-1.41
				H21.929z"/>
		</g>
		<g id="g2665" transform="matrix(1.25,0,0,-1.25,566.74392,254.52743)">
			<path id="path2667" fill="#FFFFFF" d="M19.692-3.408h0.374c0.993,0,1.843,0.544,1.843,1.793c0,1.146-0.756,1.792-1.827,1.792
				h-0.391V-3.408z M18.027,1.587h2.361c1.784,0,3.253-1.401,3.253-3.202c0-1.802-1.478-3.203-3.253-3.203h-2.361V1.587z"/>
		</g>
		<path id="path2669" fill="#FFFFFF" d="M599.344,260.549h-2.081v-8.007h2.081V260.549z"/>
		<g id="g2671" transform="matrix(1.25,0,0,-1.25,585.72779,248.95293)">
			<path id="path2673" fill="#FFFFFF" d="M14.775-4.851h-0.017L14.07-6.89h1.385L14.775-4.851z M13.611-8.164L13.17-9.277h-1.767
				l2.464,6.406h1.818l2.413-6.406h-1.775l-0.417,1.113H13.611z"/>
		</g>
		<path id="path2675" fill="#FFFFFF" d="M613.436,257.937h-3.037v-1.593h3.037V257.937z"/>
		<g id="g2677" transform="matrix(1.25,0,0,-1.25,609.97179,248.34068)">
			<path id="path2679" fill="#FFFFFF" d="M8.496-5.01C8.191-4.755,7.8-4.585,7.392-4.585c-0.306,0-0.713-0.179-0.713-0.535
				c0-0.374,0.45-0.519,0.739-0.612l0.425-0.127c0.892-0.264,1.58-0.713,1.58-1.75c0-0.637-0.154-1.291-0.663-1.724
				C8.259-9.759,7.587-9.937,6.941-9.937c-0.807,0-1.597,0.272-2.251,0.73l0.714,1.342C5.82-8.23,6.313-8.527,6.882-8.527
				c0.391,0,0.807,0.195,0.807,0.646c0,0.467-0.655,0.629-1.011,0.73c-1.045,0.298-1.733,0.569-1.733,1.81
				c0,1.3,0.926,2.149,2.209,2.149c0.645,0,1.435-0.204,2.004-0.527L8.496-5.01z"/>
		</g>
		<g id="g2681" transform="matrix(1.25,0,0,-1.25,618.31016,248.95293)">
			<path id="path2683" fill="#FFFFFF" d="M6.337-4.851H6.32L5.631-6.89h1.385L6.337-4.851z M5.173-8.164L4.731-9.277H2.964
				l2.464,6.406h1.818l2.413-6.406H7.883L7.467-8.164H5.173z"/>
		</g>
		<g id="g2685" transform="matrix(1.25,0,0,-1.25,629.17891,257.13418)">
			<path id="path2687" fill="#FFFFFF" d="M3.522-2.732H1.857v4.995H0.481v1.411h4.417V2.262H3.522V-2.732z"/>
		</g>
		<g id="g2689" transform="matrix(1.25,0,0,-1.25,643.10679,245.29443)">
			<path id="path2691" fill="#FFFFFF" d="M-0.086-5.799v-3.602c0-0.824-0.034-1.64-0.671-2.26c-0.536-0.527-1.376-0.713-2.124-0.713
				c-0.747,0-1.589,0.187-2.123,0.713c-0.638,0.62-0.672,1.436-0.672,2.26v3.602h1.665v-3.373c0-0.832,0.06-1.741,1.13-1.741
				c1.071,0,1.13,0.909,1.13,1.741v3.373H-0.086z"/>
		</g>
		<g id="g2693" transform="matrix(1.25,0,0,-1.25,648.13191,250.60193)">
			<path id="path2695" fill="#FFFFFF" d="M-1.387-4.424h0.161c0.544,0,1.156,0.102,1.156,0.799s-0.612,0.799-1.156,0.799h-0.161
				V-4.424z M2.274-7.958H0.202L-1.37-5.495h-0.017v-2.464h-1.666v6.406h2.489c1.266,0,2.226-0.603,2.226-1.971
				c0-0.884-0.492-1.648-1.401-1.81L2.274-7.958z"/>
		</g>
		<g id="g2697" transform="matrix(1.25,0,0,-1.25,655.73167,245.29443)">
			<path id="path2699" fill="#FFFFFF" d="M-3.355-5.799h1.665l3.05-3.916h0.017v3.916h1.665v-6.406H1.376l-3.05,3.925H-1.69v-3.925
				h-1.665V-5.799z"/>
		</g>
		<path id="path2701" fill="#ED1C24" d="M616.026,265.696h-43.518v-3.174h43.518V265.696z"/>
		<path id="path2703" fill="#244AA5" d="M659.537,265.696h-43.519v-3.174h43.519V265.696z"/>
	</g>
</g>
</svg>
